<?xml version="1.0" encoding="UTF-8" standalone="no"?>
<svg
   xmlns:dc="http://purl.org/dc/elements/1.1/"
   xmlns:cc="http://creativecommons.org/ns#"
   xmlns:rdf="http://www.w3.org/1999/02/22-rdf-syntax-ns#"
   xmlns:svg="http://www.w3.org/2000/svg"
   xmlns="http://www.w3.org/2000/svg"
   xmlns:sodipodi="http://sodipodi.sourceforge.net/DTD/sodipodi-0.dtd"
   xmlns:inkscape="http://www.inkscape.org/namespaces/inkscape"
   version="1.0"
   width="512"
   height="512"
   viewBox="0 0 384 383.99999"
   preserveAspectRatio="xMidYMid meet"
   id="svg8"
   sodipodi:docname="1727490.svg"
   inkscape:version="1.0.1 (3bc2e813f5, 2020-09-07)">
  <defs
     id="defs12" />
  <sodipodi:namedview
     pagecolor="#ffffff"
     bordercolor="#666666"
     borderopacity="1"
     objecttolerance="10"
     gridtolerance="10"
     guidetolerance="10"
     inkscape:pageopacity="0"
     inkscape:pageshadow="2"
     inkscape:window-width="1366"
     inkscape:window-height="705"
     id="namedview10"
     showgrid="false"
     units="px"
     height="512mm"
     inkscape:zoom="0.64"
     inkscape:cx="362.25276"
     inkscape:cy="352.34289"
     inkscape:window-x="1912"
     inkscape:window-y="-8"
     inkscape:window-maximized="1"
     inkscape:current-layer="svg8" />
  <metadata
     id="metadata2">
Created by potrace 1.15, written by Peter Selinger 2001-2017
<rdf:RDF>
  <cc:Work
     rdf:about="">
    <dc:format>image/svg+xml</dc:format>
    <dc:type
       rdf:resource="http://purl.org/dc/dcmitype/StillImage" />
    <dc:title></dc:title>
  </cc:Work>
</rdf:RDF>
</metadata>
  <g
     transform="matrix(0.01500759,0,0,-0.01500612,95.924961,288.02056)"
     fill="#000000"
     stroke="none"
     id="g6"
     style="fill:#ffffff">
    <path
       d="m 1545,12784 c -85,-19 -167,-51 -243,-95 C 1233,12648 213,11640 145,11545 44,11404 5,11282 5,11105 c 0,-169 36,-293 125,-427 29,-43 705,-726 2149,-2170 L 4385,6400 2274,4288 C 918,2930 150,2155 127,2119 39,1982 6,1870 6,1700 5,1519 43,1398 145,1255 213,1160 1233,152 1302,111 c 273,-159 604,-143 853,42 22,17 986,976 2143,2131 L 6400,4385 8503,2284 C 9659,1129 10623,170 10645,153 c 69,-51 130,-82 224,-113 208,-70 431,-44 629,71 69,41 1089,1049 1157,1144 101,141 140,263 140,440 0,166 -36,290 -121,422 -25,39 -746,767 -2148,2171 l -2111,2112 2107,2108 c 2207,2208 2162,2161 2219,2303 75,187 77,392 4,572 -53,132 -74,157 -615,700 -289,291 -552,548 -585,572 -141,101 -263,140 -440,140 -166,0 -289,-35 -420,-120 -41,-26 -724,-702 -2172,-2149 L 6400,8415 4288,10526 c -1454,1452 -2132,2123 -2173,2150 -64,41 -149,78 -230,101 -79,22 -258,26 -340,7 z"
       id="path4"
       style="fill:#ffffff" />
  </g>
</svg>
