<?xml version="1.0" encoding="UTF-8" standalone="no"?>
<svg
   xmlns:dc="http://purl.org/dc/elements/1.1/"
   xmlns:cc="http://creativecommons.org/ns#"
   xmlns:rdf="http://www.w3.org/1999/02/22-rdf-syntax-ns#"
   xmlns:svg="http://www.w3.org/2000/svg"
   xmlns="http://www.w3.org/2000/svg"
   id="svg3145"
   version="1.1"
   viewBox="0 0 162 114"
   height="114mm"
   width="162mm">
  <defs
     id="defs3139">
    <rect
       id="rect3714"
       height="13.98512"
       width="138.52828"
       y="67.090774"
       x="18.89881" />
  </defs>
  <metadata
     id="metadata3142">
    <rdf:RDF>
      <cc:Work
         rdf:about="">
        <dc:format>image/svg+xml</dc:format>
        <dc:type
           rdf:resource="http://purl.org/dc/dcmitype/StillImage" />
        <dc:title></dc:title>
      </cc:Work>
    </rdf:RDF>
  </metadata>
  <g
     id="layer1">
    <g
       id="g3759">
      <path
         id="path3708"
         style="fill:#f2f2f2;stroke:#7b7b7b;stroke-width:0.264583"
         d="M 44.369609,38.837124 A 15.874999,15.874999 0 0 0 40.840017,36.270422 L 28.54254,49.03769 31.788044,52.163771 44.501018,38.965133 a 15.874999,15.874999 0 0 0 -0.131409,-0.128009 z m 3.147591,4.258686 -12.100664,12.562936 7.53538,7.258105 A 15.874999,15.874999 0 0 0 44.79033,61.283821 15.874999,15.874999 0 0 0 47.5172,43.09581 Z M 35.509388,34.542609 a 15.874999,15.874999 0 0 0 -13.586477,4.715235 15.874999,15.874999 0 0 0 -1.563364,1.897958 l 4.554501,4.386912 z M 18.079403,45.954424 a 15.874999,15.874999 0 0 0 4.264229,15.750118 15.874999,15.874999 0 0 0 15.898105,3.670312 z" />
      <g
         style="font-style:normal;font-weight:normal;font-size:10.5833px;line-height:1.25;font-family:sans-serif;white-space:pre;shape-inside:url(#rect3714);fill:#000000;fill-opacity:1;stroke:none"
         id="text3712"
         transform="matrix(1.0810584,0,0,0.85312632,-10.042205,6.3284676)"
         aria-label="The Fitzpatrick Group">
        <path
           id="path3761"
           style="font-style:normal;font-variant:normal;font-weight:normal;font-stretch:normal;font-family:'Copperplate Gothic Bold';-inkscape-font-specification:'Copperplate Gothic Bold, '"
           d="m 23.239244,72.894697 v 5.348494 q 0,0.160196 0.07235,0.242878 0.07235,0.08268 0.258381,0.134359 v 0.165364 h -2.201409 v -0.165364 q 0.186035,-0.05168 0.258381,-0.134359 0.07235,-0.08268 0.07235,-0.242878 v -5.348494 h -2.191074 q -0.155028,0 -0.23771,0.07235 -0.08268,0.06718 -0.134359,0.253214 h -0.165364 v -1.824173 h 0.165364 q 0.05684,0.191203 0.134359,0.263549 0.08268,0.07235 0.23771,0.07235 h 5.916933 q 0.160197,0 0.242879,-0.07235 0.08268,-0.07235 0.134358,-0.263549 h 0.165364 v 1.824173 h -0.165364 q -0.05168,-0.186035 -0.134358,-0.253214 -0.08268,-0.07235 -0.242879,-0.07235 z" />
        <path
           id="path3763"
           style="font-style:normal;font-variant:normal;font-weight:normal;font-stretch:normal;font-family:'Copperplate Gothic Bold';-inkscape-font-specification:'Copperplate Gothic Bold, '"
           d="m 31.481609,76.269157 h -3.229767 v 1.989537 q 0,0.160196 0.07235,0.248046 0.07235,0.08268 0.258381,0.139526 v 0.139526 h -2.04638 v -0.144694 q 0.180867,-0.04651 0.253213,-0.134358 0.07751,-0.08785 0.07751,-0.248046 v -4.733546 q 0,-0.160197 -0.07235,-0.242879 -0.07235,-0.08268 -0.258381,-0.139526 V 72.99805 h 2.04638 v 0.144693 q -0.186035,0.05168 -0.258381,0.139526 -0.07235,0.08268 -0.07235,0.242879 v 1.694981 h 3.229767 v -1.694981 q 0,-0.160197 -0.07235,-0.242879 -0.06718,-0.08268 -0.258382,-0.139526 V 72.99805 h 2.046381 v 0.144693 q -0.186035,0.05168 -0.258382,0.139526 -0.07235,0.08268 -0.07235,0.242879 v 4.733546 q 0,0.160196 0.07235,0.248046 0.07235,0.08268 0.258382,0.139526 v 0.139526 H 31.15088 v -0.144694 q 0.180867,-0.04651 0.253214,-0.134358 0.07751,-0.08785 0.07751,-0.248046 z" />
        <path
           id="path3765"
           style="font-style:normal;font-variant:normal;font-weight:normal;font-stretch:normal;font-family:'Copperplate Gothic Bold';-inkscape-font-specification:'Copperplate Gothic Bold, '"
           d="m 35.94127,76.326001 v 1.410762 h 3.674183 q 0.160196,0 0.242878,-0.07235 0.08785,-0.07235 0.139526,-0.263549 h 0.144694 v 1.715652 h -0.144694 q -0.04651,-0.180867 -0.134358,-0.258382 -0.08785,-0.07235 -0.248046,-0.07235 h -5.389835 v -0.144694 q 0.180867,-0.04651 0.253214,-0.134358 0.07751,-0.08785 0.07751,-0.248046 v -4.733546 q 0,-0.160197 -0.07235,-0.242879 -0.07235,-0.08268 -0.258381,-0.139526 V 72.99805 h 5.229638 q 0.165364,0 0.248046,-0.07235 0.08785,-0.07235 0.139526,-0.258381 h 0.139526 v 1.715652 h -0.139526 q -0.05168,-0.191203 -0.139526,-0.263549 -0.08268,-0.07235 -0.248046,-0.07235 H 35.94127 v 1.271236 h 2.180739 q 0.160196,0 0.242878,-0.07235 0.08785,-0.07235 0.144694,-0.258381 h 0.139526 v 1.674311 h -0.139526 q -0.05168,-0.186035 -0.139526,-0.258381 -0.08268,-0.07751 -0.248046,-0.07751 z" />
        <path
           id="path3767"
           style="font-style:normal;font-variant:normal;font-weight:normal;font-stretch:normal;font-family:'Copperplate Gothic Bold';-inkscape-font-specification:'Copperplate Gothic Bold, '"
           d="m 45.671912,75.700718 v 2.542473 q 0,0.160196 0.07235,0.248046 0.07751,0.08268 0.258381,0.129191 v 0.165364 h -2.201409 v -0.165364 q 0.186035,-0.05168 0.258382,-0.134359 0.07235,-0.08268 0.07235,-0.242878 v -5.968609 q 0,-0.160197 -0.07235,-0.242879 -0.07235,-0.08268 -0.258382,-0.134358 v -0.165364 h 6.242493 q 0.155029,0 0.237711,-0.07235 0.08268,-0.07235 0.134359,-0.263549 h 0.165364 v 1.824173 h -0.165364 q -0.05168,-0.186035 -0.134359,-0.253214 -0.08268,-0.07235 -0.237711,-0.07235 h -4.371812 v 1.684646 h 2.857698 q 0.160196,0 0.242878,-0.07235 0.08268,-0.07752 0.134359,-0.263549 h 0.165364 v 1.782831 h -0.165364 q -0.05168,-0.180867 -0.134359,-0.253214 -0.08268,-0.07235 -0.242878,-0.07235 z" />
        <path
           id="path3769"
           style="font-style:normal;font-variant:normal;font-weight:normal;font-stretch:normal;font-family:'Copperplate Gothic Bold';-inkscape-font-specification:'Copperplate Gothic Bold, '"
           d="m 53.102958,73.525148 v 4.733546 q 0,0.160196 0.07235,0.248046 0.07235,0.08268 0.258381,0.139526 v 0.139526 h -2.04638 v -0.144694 q 0.180867,-0.04651 0.253214,-0.134358 0.07751,-0.08785 0.07751,-0.248046 v -4.733546 q 0,-0.160197 -0.07235,-0.242879 -0.07235,-0.08268 -0.258381,-0.139526 V 72.99805 h 2.04638 v 0.144693 q -0.186034,0.05168 -0.258381,0.139526 -0.07235,0.08268 -0.07235,0.242879 z" />
        <path
           id="path3771"
           style="font-style:normal;font-variant:normal;font-weight:normal;font-stretch:normal;font-family:'Copperplate Gothic Bold';-inkscape-font-specification:'Copperplate Gothic Bold, '"
           d="m 57.634969,74.047078 v 4.211616 q 0,0.160196 0.07235,0.248046 0.07235,0.08268 0.258381,0.139526 v 0.139526 h -2.04638 v -0.144694 q 0.180867,-0.04651 0.253213,-0.134358 0.07751,-0.08785 0.07751,-0.248046 v -4.211616 h -1.705317 q -0.165364,0 -0.253214,0.07751 -0.08268,0.07235 -0.134358,0.258382 H 54.01763 v -1.715652 h 0.144694 q 0.04651,0.180866 0.12919,0.258381 0.08785,0.07235 0.253214,0.07235 h 4.795558 q 0.165364,0 0.248046,-0.07235 0.08785,-0.07235 0.139526,-0.258381 h 0.139526 v 1.715652 h -0.139526 q -0.05168,-0.186035 -0.139526,-0.258382 -0.08268,-0.07751 -0.248046,-0.07751 z" />
        <path
           id="path3773"
           style="font-style:normal;font-variant:normal;font-weight:normal;font-stretch:normal;font-family:'Copperplate Gothic Bold';-inkscape-font-specification:'Copperplate Gothic Bold, '"
           d="m 62.590723,77.736763 h 2.935212 q 0.165364,0 0.248046,-0.07235 0.08268,-0.07752 0.139526,-0.263549 h 0.139526 v 1.715652 h -0.144694 q -0.04651,-0.180867 -0.134358,-0.258382 -0.08268,-0.07235 -0.248046,-0.07235 h -5.18313 v -0.310058 l 3.374461,-4.428656 h -2.806022 q -0.165364,0 -0.248046,0.07235 -0.08268,0.07235 -0.139526,0.263549 h -0.139526 v -1.715652 h 0.139526 q 0.05168,0.186034 0.134358,0.258381 0.08785,0.07235 0.253214,0.07235 h 5.090113 v 0.253213 z" />
        <path
           id="path3775"
           style="font-style:normal;font-variant:normal;font-weight:normal;font-stretch:normal;font-family:'Copperplate Gothic Bold';-inkscape-font-specification:'Copperplate Gothic Bold, '"
           d="m 68.621341,76.408683 v 1.850011 q 0,0.160196 0.07235,0.248046 0.07235,0.08268 0.258381,0.139526 v 0.139526 h -2.04638 v -0.144694 q 0.180867,-0.04651 0.253214,-0.134358 0.07751,-0.08785 0.07751,-0.248046 v -4.733546 q 0,-0.160197 -0.07235,-0.242879 -0.07235,-0.08268 -0.258381,-0.139526 V 72.99805 h 3.772367 q 1.121375,0 1.689814,0.335895 0.330729,0.19637 0.516763,0.558104 0.186035,0.361734 0.186035,0.811317 0,0.862994 -0.58911,1.28674 -0.589109,0.418577 -1.803502,0.418577 z m 0,-1.049028 h 1.974033 q 0.542601,0 0.754474,-0.103352 0.310058,-0.149862 0.310058,-0.552937 0,-0.403074 -0.310058,-0.552936 -0.206705,-0.103352 -0.754474,-0.103352 h -1.974033 z" />
        <path
           id="path3777"
           style="font-style:normal;font-variant:normal;font-weight:normal;font-stretch:normal;font-family:'Copperplate Gothic Bold';-inkscape-font-specification:'Copperplate Gothic Bold, '"
           d="m 78.196954,77.338856 h -2.661328 l -0.299722,0.630451 q -0.108521,0.227375 -0.108521,0.356566 0,0.248046 0.330729,0.315225 v 0.144694 h -2.129063 v -0.144694 q 0.19637,-0.03101 0.289387,-0.118855 0.09819,-0.08785 0.227376,-0.346231 l 2.113559,-4.278795 q 0.118856,-0.242879 0.118856,-0.423746 0,-0.211872 -0.289387,-0.330728 V 72.99805 h 2.247917 v 0.144693 q -0.284219,0.113688 -0.284219,0.351399 0,0.170531 0.129191,0.418578 l 2.191073,4.149604 q 0.180867,0.341063 0.28422,0.444416 0.103352,0.09819 0.315225,0.139526 v 0.139526 h -2.361605 v -0.139526 q 0.335895,-0.05684 0.335895,-0.315226 0,-0.160196 -0.12919,-0.397907 z M 77.778376,76.527539 76.8327,74.672361 75.933533,76.527539 Z" />
        <path
           id="path3779"
           style="font-style:normal;font-variant:normal;font-weight:normal;font-stretch:normal;font-family:'Copperplate Gothic Bold';-inkscape-font-specification:'Copperplate Gothic Bold, '"
           d="m 84.341264,74.047078 v 4.211616 q 0,0.160196 0.07235,0.248046 0.07235,0.08268 0.258381,0.139526 v 0.139526 h -2.04638 v -0.144694 q 0.180867,-0.04651 0.253213,-0.134358 0.07751,-0.08785 0.07751,-0.248046 v -4.211616 h -1.705317 q -0.165364,0 -0.253214,0.07751 -0.08268,0.07235 -0.134358,0.258382 h -0.139526 v -1.715652 h 0.144694 q 0.04651,0.180866 0.12919,0.258381 0.08785,0.07235 0.253214,0.07235 h 4.795558 q 0.165364,0 0.248046,-0.07235 0.08785,-0.07235 0.139526,-0.258381 h 0.139526 v 1.715652 h -0.139526 q -0.05168,-0.186035 -0.139526,-0.258382 -0.08268,-0.07751 -0.248046,-0.07751 z" />
        <path
           id="path3781"
           style="font-style:normal;font-variant:normal;font-weight:normal;font-stretch:normal;font-family:'Copperplate Gothic Bold';-inkscape-font-specification:'Copperplate Gothic Bold, '"
           d="m 88.878436,76.408683 v 1.850011 q 0,0.160196 0.07235,0.248046 0.07235,0.08268 0.258381,0.139526 v 0.139526 h -2.04638 v -0.144694 q 0.180867,-0.04651 0.253214,-0.134358 0.07751,-0.08785 0.07751,-0.248046 v -4.733546 q 0,-0.160197 -0.07235,-0.242879 -0.07235,-0.08268 -0.258382,-0.139526 V 72.99805 h 3.793038 q 0.738971,0 1.126543,0.07751 0.387572,0.07235 0.692462,0.268717 0.625283,0.408242 0.625283,1.333247 0,0.702798 -0.387572,1.100705 -0.382405,0.392739 -1.240231,0.568439 l 1.095537,1.529617 q 0.299723,0.423746 0.475422,0.578774 0.180867,0.149862 0.408242,0.191203 v 0.139526 h -2.428784 v -0.139526 q 0.268716,-0.07235 0.268716,-0.232544 0,-0.113687 -0.165364,-0.346231 l -1.157548,-1.658808 z m 0,-1.049028 h 2.087722 q 0.475421,0 0.702797,-0.103352 0.320393,-0.139526 0.320393,-0.552937 0,-0.366901 -0.227376,-0.511595 -0.222208,-0.144693 -0.795814,-0.144693 h -2.087722 z" />
        <path
           id="path3783"
           style="font-style:normal;font-variant:normal;font-weight:normal;font-stretch:normal;font-family:'Copperplate Gothic Bold';-inkscape-font-specification:'Copperplate Gothic Bold, '"
           d="m 96.185466,73.525148 v 4.733546 q 0,0.160196 0.07235,0.248046 0.07235,0.08268 0.258381,0.139526 v 0.139526 h -2.04638 v -0.144694 q 0.180867,-0.04651 0.253214,-0.134358 0.07751,-0.08785 0.07751,-0.248046 v -4.733546 q 0,-0.160197 -0.07235,-0.242879 -0.07235,-0.08268 -0.258381,-0.139526 V 72.99805 h 2.04638 v 0.144693 q -0.186034,0.05168 -0.258381,0.139526 -0.07235,0.08268 -0.07235,0.242879 z" />
        <path
           id="path3785"
           style="font-style:normal;font-variant:normal;font-weight:normal;font-stretch:normal;font-family:'Copperplate Gothic Bold';-inkscape-font-specification:'Copperplate Gothic Bold, '"
           d="m 103.19793,76.713573 0.87333,1.271236 -0.11886,0.08785 q -0.12402,-0.08785 -0.19637,-0.08785 -0.0878,0 -0.40824,0.191203 -0.70796,0.41341 -1.25056,0.573606 -0.54261,0.160197 -1.25057,0.160197 -1.41593,0 -2.309929,-0.676959 -0.506428,-0.387572 -0.80615,-0.971514 -0.320393,-0.630451 -0.320393,-1.369421 0,-1.018023 0.58911,-1.798335 0.925005,-1.219559 2.837022,-1.219559 0.70797,0 1.25574,0.160196 0.55293,0.160196 1.25573,0.573607 0.32039,0.191202 0.40824,0.191202 0.0724,0 0.19637,-0.08785 l 0.11886,0.09302 -0.87333,1.266069 -0.11369,-0.08268 q 0.005,-0.06201 0.0103,-0.07751 0.005,-0.04651 0.005,-0.06718 0,-0.253213 -0.69763,-0.573606 -0.66146,-0.30489 -1.33325,-0.30489 -0.94051,0 -1.55029,0.496092 -0.69763,0.558104 -0.69763,1.431433 0,0.878496 0.69763,1.4366 0.61495,0.490924 1.55029,0.490924 0.7338,0 1.46244,-0.366901 0.56844,-0.289387 0.56844,-0.506428 0,-0.01033 -0.0155,-0.144693 z" />
        <path
           id="path3787"
           style="font-style:normal;font-variant:normal;font-weight:normal;font-stretch:normal;font-family:'Copperplate Gothic Bold';-inkscape-font-specification:'Copperplate Gothic Bold, '"
           d="m 107.24935,76.145134 -0.82165,0.671792 v 1.441768 q 0,0.160196 0.0724,0.248046 0.0723,0.08268 0.25838,0.139526 v 0.139526 h -2.04638 v -0.144694 q 0.18086,-0.04651 0.25321,-0.134358 0.0775,-0.08785 0.0775,-0.248046 v -4.733546 q 0,-0.160197 -0.0724,-0.242879 -0.0724,-0.08268 -0.25838,-0.139526 V 72.99805 h 2.04638 v 0.144693 q -0.18604,0.05168 -0.25838,0.139526 -0.0724,0.08268 -0.0724,0.242879 v 1.896519 l 2.17557,-1.736323 q 0.24288,-0.191202 0.24288,-0.335896 0,-0.155029 -0.29972,-0.206705 V 72.99805 h 2.60448 v 0.139526 q -0.19637,0.03101 -0.33073,0.118855 -0.12919,0.08785 -0.65112,0.542601 l -1.95336,1.555455 2.14973,2.470126 q 0.41341,0.480589 0.58911,0.625283 0.18087,0.144693 0.41341,0.19637 v 0.139526 h -2.53214 v -0.139526 q 0.28422,-0.06718 0.28422,-0.206705 0,-0.05168 -0.0362,-0.09819 -0.031,-0.05168 -0.23771,-0.289387 z" />
        <path
           id="path3789"
           style="font-style:normal;font-variant:normal;font-weight:normal;font-stretch:normal;font-family:'Copperplate Gothic Bold';-inkscape-font-specification:'Copperplate Gothic Bold, '"
           d="m 121.01591,76.248487 h -1.74149 q -0.16019,0 -0.24288,0.07235 -0.0775,0.07235 -0.12919,0.258381 h -0.16536 V 74.93591 h 0.16536 q 0.0517,0.191202 0.12919,0.263549 0.0827,0.06718 0.24288,0.06718 h 3.34863 v 0.165364 q -0.18604,0.05168 -0.26355,0.134358 -0.0724,0.08268 -0.0724,0.242879 v 1.446935 q 0,0.160197 0.0724,0.242879 0.0723,0.08268 0.26355,0.134358 v 0.129191 q -2.01021,1.147213 -3.8964,1.147213 -1.71048,0 -2.79051,-0.811318 -1.35909,-1.02319 -1.35909,-2.842194 0,-1.694982 1.20922,-2.697502 1.14722,-0.950843 3.0489,-0.950843 0.60462,0 1.13688,0.113688 0.53744,0.10852 1.21956,0.372069 0.3514,0.139526 0.50126,0.139526 0.10852,0 0.25322,-0.118856 l 0.14469,0.07752 -0.82682,1.689814 -0.14986,-0.07752 q -0.005,-0.170531 -0.0465,-0.242878 -0.0413,-0.07751 -0.18604,-0.186035 -0.31522,-0.23771 -0.925,-0.403075 -0.60978,-0.170531 -1.15238,-0.170531 -1.10587,0 -1.83451,0.620115 -0.82165,0.702797 -0.82165,1.855178 0,1.116207 0.80098,1.803502 0.7338,0.63045 1.93269,0.63045 0.58395,0 1.15238,-0.134358 0.56844,-0.134358 0.98185,-0.366902 z" />
        <path
           id="path3791"
           style="font-style:normal;font-variant:normal;font-weight:normal;font-stretch:normal;font-family:'Copperplate Gothic Bold';-inkscape-font-specification:'Copperplate Gothic Bold, '"
           d="m 125.40322,76.408683 v 1.850011 q 0,0.160196 0.0724,0.248046 0.0724,0.08268 0.25838,0.139526 v 0.139526 h -2.04638 v -0.144694 q 0.18087,-0.04651 0.25322,-0.134358 0.0775,-0.08785 0.0775,-0.248046 v -4.733546 q 0,-0.160197 -0.0724,-0.242879 -0.0723,-0.08268 -0.25838,-0.139526 V 72.99805 h 3.79304 q 0.73897,0 1.12654,0.07751 0.38757,0.07235 0.69246,0.268717 0.62529,0.408242 0.62529,1.333247 0,0.702798 -0.38757,1.100705 -0.38241,0.392739 -1.24023,0.568439 l 1.09553,1.529617 q 0.29972,0.423746 0.47542,0.578774 0.18087,0.149862 0.40825,0.191203 v 0.139526 h -2.42879 v -0.139526 q 0.26872,-0.07235 0.26872,-0.232544 0,-0.113687 -0.16537,-0.346231 l -1.15754,-1.658808 z m 0,-1.049028 h 2.08773 q 0.47542,0 0.70279,-0.103352 0.3204,-0.139526 0.3204,-0.552937 0,-0.366901 -0.22738,-0.511595 -0.22221,-0.144693 -0.79581,-0.144693 h -2.08773 z" />
        <path
           id="path3793"
           style="font-style:normal;font-variant:normal;font-weight:normal;font-stretch:normal;font-family:'Copperplate Gothic Bold';-inkscape-font-specification:'Copperplate Gothic Bold, '"
           d="m 134.09258,72.874027 q 1.37976,0 2.2996,0.702797 1.1007,0.847491 1.1007,2.361605 0,1.421098 -1.1007,2.268588 -0.9095,0.702798 -2.28926,0.702798 -1.37976,0 -2.28926,-0.702798 -1.10587,-0.84749 -1.10587,-2.315096 0,-1.483109 1.10587,-2.315097 0.91467,-0.687295 2.27892,-0.702797 z m 0.005,1.095536 q -0.894,0 -1.45727,0.573607 -0.52193,0.537433 -0.52193,1.348751 0,0.806149 0.52193,1.343583 0.56327,0.578774 1.46244,0.578774 0.894,0 1.45727,-0.578774 0.52193,-0.532266 0.52193,-1.317745 0,-0.852659 -0.52193,-1.374589 -0.56844,-0.563271 -1.46244,-0.573607 z" />
        <path
           id="path3795"
           style="font-style:normal;font-variant:normal;font-weight:normal;font-stretch:normal;font-family:'Copperplate Gothic Bold';-inkscape-font-specification:'Copperplate Gothic Bold, '"
           d="m 144.45627,73.525148 v 3.064402 q 0,1.049028 -0.41341,1.539953 -0.66663,0.780312 -2.51147,0.780312 -1.23506,0 -1.99471,-0.377237 -0.54776,-0.273884 -0.7493,-0.780312 -0.18604,-0.465086 -0.18604,-1.162716 v -3.064402 q 0,-0.160197 -0.0723,-0.242879 -0.0724,-0.08268 -0.25838,-0.139526 V 72.99805 h 2.05154 v 0.144693 q -0.1912,0.05168 -0.26355,0.139526 -0.0723,0.08268 -0.0723,0.242879 v 2.78535 q 0,0.485757 0.0827,0.744139 0.0879,0.258381 0.29972,0.423745 0.42375,0.335896 1.22473,0.335896 0.80098,0 1.22473,-0.335896 0.2067,-0.165364 0.28938,-0.423745 0.0827,-0.258382 0.0827,-0.744139 v -2.78535 q 0,-0.160197 -0.0724,-0.242879 -0.0672,-0.08268 -0.25838,-0.139526 V 72.99805 h 1.92752 v 0.144693 q -0.18603,0.05168 -0.25838,0.139526 -0.0723,0.08268 -0.0723,0.242879 z" />
        <path
           id="path3797"
           style="font-style:normal;font-variant:normal;font-weight:normal;font-stretch:normal;font-family:'Copperplate Gothic Bold';-inkscape-font-specification:'Copperplate Gothic Bold, '"
           d="m 147.41732,76.408683 v 1.850011 q 0,0.160196 0.0723,0.248046 0.0724,0.08268 0.25838,0.139526 v 0.139526 h -2.04638 v -0.144694 q 0.18087,-0.04651 0.25322,-0.134358 0.0775,-0.08785 0.0775,-0.248046 v -4.733546 q 0,-0.160197 -0.0724,-0.242879 -0.0723,-0.08268 -0.25838,-0.139526 V 72.99805 h 3.77237 q 1.12138,0 1.68982,0.335895 0.33072,0.19637 0.51676,0.558104 0.18603,0.361734 0.18603,0.811317 0,0.862994 -0.58911,1.28674 -0.58911,0.418577 -1.8035,0.418577 z m 0,-1.049028 h 1.97403 q 0.5426,0 0.75447,-0.103352 0.31006,-0.149862 0.31006,-0.552937 0,-0.403074 -0.31006,-0.552936 -0.2067,-0.103352 -0.75447,-0.103352 h -1.97403 z" />
      </g>
    </g>
  </g>
</svg>
