<?xml version="1.0" encoding="UTF-8" standalone="no"?>
<svg
   xmlns:dc="http://purl.org/dc/elements/1.1/"
   xmlns:cc="http://creativecommons.org/ns#"
   xmlns:rdf="http://www.w3.org/1999/02/22-rdf-syntax-ns#"
   xmlns:svg="http://www.w3.org/2000/svg"
   xmlns="http://www.w3.org/2000/svg"
   xmlns:sodipodi="http://sodipodi.sourceforge.net/DTD/sodipodi-0.dtd"
   xmlns:inkscape="http://www.inkscape.org/namespaces/inkscape"
   inkscape:version="1.0 (4035a4fb49, 2020-05-01)"
   sodipodi:docname="mail.svg"
   id="svg7"
   version="1.1"
   viewBox="0 0 24 24">
  <metadata
     id="metadata13">
    <rdf:RDF>
      <cc:Work
         rdf:about="">
        <dc:format>image/svg+xml</dc:format>
        <dc:type
           rdf:resource="http://purl.org/dc/dcmitype/StillImage" />
        <dc:title>mail</dc:title>
      </cc:Work>
    </rdf:RDF>
  </metadata>
  <defs
     id="defs11" />
  <sodipodi:namedview
     inkscape:current-layer="svg7"
     inkscape:window-maximized="1"
     inkscape:window-y="-8"
     inkscape:window-x="-8"
     inkscape:cy="12.231238"
     inkscape:cx="9.7261462"
     inkscape:zoom="25.043365"
     showgrid="false"
     id="namedview9"
     inkscape:window-height="1017"
     inkscape:window-width="1920"
     inkscape:pageshadow="2"
     inkscape:pageopacity="0"
     guidetolerance="10"
     gridtolerance="10"
     objecttolerance="10"
     borderopacity="1"
     bordercolor="#666666"
     pagecolor="#ffffff" />
  <title
     id="title2">mail</title>
  <g
     transform="matrix(1,0,0,0.7,0,3.6)"
     style="fill:#ffffff"
     fill="#fff"
     id="mail">
    <path
       style="fill:#ffffff"
       id="path4"
       d="M 22,2 H 2 A 2,2 0 0 0 0,4 v 2.36 l 10.743,4.958 a 3,3 0 0 0 2.515,0 L 24,6.36 V 4 A 2,2 0 0 0 22,2 Z M 12,13.6 A 5,5 0 0 1 9.9,13.14 L 0,8.563 V 20 a 2,2 0 0 0 2,2 h 20 a 2,2 0 0 0 2,-2 V 8.563 l -9.9,4.572 A 4.991,4.991 0 0 1 12,13.6 Z" />
  </g>
</svg>
