<?xml version="1.0" encoding="UTF-8" standalone="no"?>
<svg
   xmlns:dc="http://purl.org/dc/elements/1.1/"
   xmlns:cc="http://creativecommons.org/ns#"
   xmlns:rdf="http://www.w3.org/1999/02/22-rdf-syntax-ns#"
   xmlns:svg="http://www.w3.org/2000/svg"
   xmlns="http://www.w3.org/2000/svg"
   xmlns:sodipodi="http://sodipodi.sourceforge.net/DTD/sodipodi-0.dtd"
   xmlns:inkscape="http://www.inkscape.org/namespaces/inkscape"
   inkscape:version="1.0 (4035a4fb49, 2020-05-01)"
   sodipodi:docname="phone.svg"
   id="svg10"
   xml:space="preserve"
   enable-background="new 0 0 1000 1000"
   viewBox="0 0 1000 1000"
   y="0px"
   x="0px"
   version="1.1"><defs
   id="defs14" /><sodipodi:namedview
   inkscape:current-layer="svg10"
   inkscape:window-maximized="1"
   inkscape:window-y="-8"
   inkscape:window-x="-8"
   inkscape:cy="405.22884"
   inkscape:cx="355.32587"
   inkscape:zoom="0.60104076"
   showgrid="false"
   id="namedview12"
   inkscape:window-height="1017"
   inkscape:window-width="1920"
   inkscape:pageshadow="2"
   inkscape:pageopacity="0"
   guidetolerance="10"
   gridtolerance="10"
   objecttolerance="10"
   borderopacity="1"
   bordercolor="#666666"
   pagecolor="#ffffff" />
<metadata
   id="metadata2"> Svg Vector Icons : http://www.onlinewebfonts.com/icon <rdf:RDF><cc:Work
     rdf:about=""><dc:format>image/svg+xml</dc:format><dc:type
       rdf:resource="http://purl.org/dc/dcmitype/StillImage" /></cc:Work></rdf:RDF></metadata>
<g id="g8">
	<g id="g6" fill = '#fff'>
		<path
       sodipodi:nodetypes="cccsccccsscccsccssccc"
       id="path4"
       d="M 857.2,610.9 C 852.5,578.1 827.1,552.5 794.5,544.8 667.6,515.1 635.8,442 630.5,361 608,356.8 568,352.3 500,352.3 c -68,0 -108,4.5 -130.5,8.7 -5.4,81 -37.2,154.1 -164,183.8 -32.6,7.7 -58,33.2 -62.7,66.1 l -24.5,169.5 c -8.6,59.7 35.2,113.5 96.1,113.5 h 571.1 c 60.9,0 104.8,-53.8 96.1,-113.5 z M 989.9,303.1 C 988.7,229.3 800.8,106.2 500,106.2 199.2,106.2 11.3,229.3 10.1,303.1 9,376.9 11.2,473 135,457 279.8,438.2 270.9,387.7 270.9,315.4 c 0,-50.4 117.8,-62.6 229.2,-62.6 111.4,0 229.1,12.2 229.2,62.6 0,72.3 -8.9,122.8 135.9,141.6 123.6,16 125.8,-80.1 124.7,-153.9 z" /></g></g>
</svg>
